<svg xmlns="http://www.w3.org/2000/svg" xmlns:xlink="http://www.w3.org/1999/xlink" version="1.1" id="Layer_1" x="0px" y="0px" viewBox="0 0 24 24" style="enable-background:new 0 0 24 24;" xml:space="preserve" height="24">
<rect x="-2.75" y="-1.5" style="display:none;fill:#878679;" width="30.4375" height="26.4375"/>
<path style="fill:#5A5A4E;" d="M17.8999996,20.3999996l5.6139965-12.0026369L20.5999985,7.999999L17.8999996,20.3999996z"/>
<g>
	<g>
		<path style="fill-rule:evenodd;clip-rule:evenodd;fill:#FFFFFF;" d="M9.9562206,7.8231506    C9.9323559,7.8217468,9.7596874,7.8117371,9.7369213,7.8103943s-0.0491943,0.006958-0.055481,0.0465088    C9.6654491,7.9240417,9.5066357,8.5908508,9.5066357,8.5908508s0.4355469-0.5754395,0.486145-0.6410522    C10.0424023,7.8853455,9.9800854,7.8244934,9.9562206,7.8231506z M5.3429394,4.9566345L2.1518383,18.6217346l15.7463989,1.7782593    L21.0893383,5.776947L5.3429394,4.9566345z M16.2463818,7.2817078l-0.2820435,1.0969238l0.6380615-0.701416l0.0960693-0.3716431    L17.1769848,7.33078l-1.0767822,4.1426392l-0.4696655-0.036499l0.6060791-2.3447266l-0.6499023,0.7547607    c0,0-0.3798828,1.477417-0.387146,1.5055542c-0.0072021,0.0281372-0.0299683,0.048645-0.0578003,0.0465088    c-0.0922241-0.0072021-0.3016357-0.0234375-0.3955688-0.0307617c-0.0291748-0.0022583-0.0420532-0.0238647-0.0344849-0.0534668    c0.0075684-0.0296631,1.0377808-4.0592041,1.0377808-4.0592041L16.2463818,7.2817078z M14.067976,7.1669617l1.2579346,0.0662842    l-0.0557861,0.8728027l-0.5603638-0.0324707l-0.8173828,3.2283936l-0.4574585-0.0355835l0.81073-3.2197266l-0.5535278-0.0320435    L14.067976,7.1669617z M12.9199047,7.1064758c0.4952393,0.026062,0.7329102,0.0386353,0.7329102,0.0386353l-0.0526123,0.8641968    c0,0-0.5640259-0.0327148-0.6176758-0.0357666c-0.0535889-0.0031128-0.0986938,0.0254517-0.1158447,0.0946655    s-0.5383301,2.1729126-0.5534058,2.2337646s0.003479,0.100647,0.0657349,0.1052246    c0.0621948,0.0045166,0.6599121,0.0480957,0.7018433,0.0511475c0.0418701,0.0030518,0.0664063,0.065979,0.0372314,0.1287842    c-0.0961304,0.2067871-0.2967529,0.6316528-0.2967529,0.6316528s-0.833313-0.0647583-0.9006348-0.0699463    c-0.0672607-0.005249-0.2575684-0.1566772-0.1820068-0.463501c0.0327148-0.1326904,0.7283936-2.9571533,0.7682495-3.1190796    C12.5468578,7.4042053,12.7139111,7.0956116,12.9199047,7.1064758z M12.2161083,7.0693665L12.1661205,7.926239    l-0.7860107-0.0455322L11.1697216,8.745697c0,0,0.1838989,0.0116577,0.2453003,0.0155029    c0.0614624,0.0039063,0.0648193,0.078064,0.0592041,0.1291504c-0.0056152,0.0509644-0.0396729,0.3481445-0.0396729,0.3481445    l-0.37854-0.0250854l-0.262207,1.078125c0,0,0.6472778,0.0472412,0.6883545,0.0502319s0.0652466,0.0653076,0.0368042,0.1275024    c-0.093811,0.204895-0.2895508,0.6258545-0.2895508,0.6258545L10.1486034,11.0112l0.9671021-3.9997559L12.2161083,7.0693665z     M9.5589428,6.8795471c0.0483398,0.0025635,0.6141968,0.0322266,0.6812134,0.0357056    c0.0670776,0.00354,0.4018555,0.0991211,0.3074341,0.4920044c-0.0942383,0.3919678-0.1004639,0.4178467-0.1185913,0.4932861    c-0.0181274,0.0753784-0.2840576,0.5950317-0.6193848,0.907959c0.1100464,0.137146,0.2980957,0.8922119,0.2111206,1.253418    c-0.067749,0.2814941-0.0750732,0.3119507-0.0994263,0.413147c-0.024353,0.1011353-0.2282715,0.5007324-0.5142822,0.4785156    c-0.2850342-0.0221558-0.8853149-0.0687866-0.8853149-0.0687866s0.9075317-3.831665,0.9264526-3.911438    C9.4670238,6.8935242,9.5105419,6.8770447,9.5589428,6.8795471z M7.713789,8.6739197    c0.0159912-0.0686035,0.0321655-0.1449585,0.0977783-0.1408081C7.8772411,8.537262,7.9612255,8.542572,7.9612255,8.542572    s0.6472168-0.7977295,0.4290161-0.8103638C8.1727123,7.719574,7.7253246,7.693573,7.7253246,7.693573l0.2833252-0.8458252    c0,0,0.7330933,0.0385742,0.8198242,0.0431519C8.915266,6.8954773,9.061018,7.0237732,9.0197582,7.198761    C8.9785595,7.3735657,8.8701,7.8336487,8.852705,7.9074402c-0.017395,0.0737305-0.1235962,0.3208008-0.375,0.5693359    C8.4253368,8.5248108,8.4017162,8.6196594,8.4434643,8.622345c0.0418091,0.0026245,0.197937,0.1814575,0.1627808,0.3304443    c-0.0350952,0.1488037-0.3480225,1.4762573-0.3696289,1.5679321c-0.0303955,0.1289673-0.2539673,0.3222656-0.3778687,0.3126221    c-0.1237183-0.0096436-0.8052368-0.062561-0.8052368-0.062561L7.140852,10.025116c0,0,0.5404663,0.0394287,0.6151123,0.0448608    c0.074707,0.0054321,0.1620483-0.0438232,0.1885986-0.1572266c0.0266113-0.1135254,0.1279907-0.5459595,0.1524048-0.6500854    c0.0244751-0.104248,0.0220947-0.2437134-0.1146851-0.2528076C7.845808,9.000824,7.6407909,8.9872742,7.6407909,8.9872742    S7.6978588,8.7424622,7.713789,8.6739197z M6.3307323,6.7593079l0.442627,0.0233154L6.5360546,7.8194885l0.559082-0.6644287    l0.0807495-0.3511963l0.4259644,0.0223999l-0.9059448,3.916748l-0.4186401-0.0325317l0.5101929-2.2178345L6.2183666,9.2080383    c0,0-0.3198853,1.3978271-0.3259888,1.4244385c-0.0060425,0.0266724-0.026062,0.0460815-0.0509033,0.0441895    c-0.0822754-0.0064087-0.269043-0.020874-0.3528442-0.0274048c-0.026001-0.0020142-0.0377197-0.0223999-0.0313721-0.050415    C5.4636669,10.5707703,6.3307323,6.7593079,6.3307323,6.7593079z M9.6567822,17.6117859l-5.7477417-0.5436401l1.1495361-4.8209229    l5.6519775,0.3831787L9.6567822,17.6117859z M16.4582958,17.0370178l-5.364563-0.4789429l0.0957642-0.5747681l5.364563,0.4789429    L16.4582958,17.0370178z M16.8414745,15.4084778l-5.4603882-0.4789429l0.0958252-0.5747681l5.4603271,0.4789429    L16.8414745,15.4084778z M17.2246532,13.8757629l-5.5561523-0.4790039l0.0957642-0.5747681l5.5561523,0.4790039    L17.2246532,13.8757629z M17.8851757,11.61203c0,0-0.2121582-0.0164185-0.454834-0.0352783    c-0.0300903-0.0023804-0.043335-0.024292-0.0354004-0.0543823c0.1644287-0.62323,0.3618774-1.371582,0.3618774-1.371582    l-0.1156616-0.3974609l-0.2111206,0.2453003c0,0-0.3856201,1.4675903-0.3930664,1.4960327    c-0.0075073,0.0284424-0.0308228,0.0491333-0.0592651,0.046936c-0.0942383-0.0073242-0.3082886-0.0239258-0.4042969-0.0314331    c-0.0297852-0.0023193-0.0429077-0.0241089-0.0350952-0.0540771c0.0078125-0.0299072,0.2467651-0.9447021,0.3234253-1.2380371    c0.1105347-0.4232178,0.460022-0.8689575,0.649292-0.992981c-0.1904297-0.3615112-0.2200317-0.6504517-0.1362305-0.9710693    c0.0205078-0.0786133,0.0275879-0.1055908,0.1342773-0.5139771c0.1068726-0.4093018,0.5730591-0.4140015,0.6467896-0.4101563    s0.7017212,0.0367432,0.7558594,0.0396118c0.0541382,0.0028076,0.0928345,0.0246582,0.0703735,0.1091309    C18.8240795,8.0741272,17.8851757,11.61203,17.8851757,11.61203z M18.1872387,8.301178    c-0.0294189-0.001709-0.2758789-0.0160522-0.3065186-0.0178223s-0.1227417,0.0640259-0.1010742,0.1491089    c0.0220337,0.086731,0.206543,0.848999,0.206543,0.848999s0.2194824-0.8320313,0.2415771-0.9157715    C18.2447948,8.3167419,18.2167187,8.302887,18.1872387,8.301178z M9.1955395,10.1749573    c0.0437622,0.0032349,0.1641846,0.0119629,0.1953125,0.0142822c0.031189,0.0022583,0.0698242-0.0166016,0.0985718-0.0421753    c0.0249023-0.0220947,0.0518799-0.0317383,0.0609741-0.0695801C9.5594311,10.0396423,9.6092968,9.8312683,9.6201,9.7861633    c0.0108032-0.045166,0.0019531-0.1240234-0.0188599-0.1990356C9.5793285,9.5082703,9.4921703,9.2087708,9.4921703,9.2087708    l-0.1884766,0.234375c0,0-0.1247559,0.5237427-0.1444092,0.6061401    C9.1396923,10.1316223,9.1517162,10.1717834,9.1955395,10.1749573z"/>
	</g>
</g>
</svg>