<svg xmlns="http://www.w3.org/2000/svg" xmlns:xlink="http://www.w3.org/1999/xlink" version="1.1" id="Layer_1" x="0px" y="0px" viewBox="0 0 24 24" style="enable-background:new 0 0 24 24;" xml:space="preserve">
<style type="text/css">
	.st0{display:none;fill:#878679;}
	.st1{fill:#FFFFFF;}
	.st2{fill:#5A5A4E;}
</style>
<rect x="-2.75" y="-1.5" class="st0" width="30.4375" height="26.4375"/>
<polygon class="st1" points="23,16.817112 19.3799114,16.817112 19.3799114,13.1117859 17.6201744,13.1117859 17.6201744,16.817112   14,16.817112 14,18.5768471 17.6201744,18.5768471 17.6201744,22.1117859 19.3799114,22.1117859 19.3799114,18.5768471   23,18.5768471 "/>
<polygon class="st2" points="20.8798828,11.6117554 20.8798828,13.1117554 20.8798828,14.0290527 23.5139771,8.3973389   20.5999756,8 19.8135376,11.6117554 "/>
<g>
	<path class="st1" d="M18.1872559,8.3011475c-0.0294189-0.001709-0.2758789-0.0160522-0.3065186-0.0178223   s-0.1227417,0.0640259-0.1010742,0.1491089c0.0220337,0.086731,0.206543,0.848999,0.206543,0.848999   s0.2194824-0.8320313,0.2415771-0.9157715C18.244812,8.3167114,18.2167358,8.3028564,18.1872559,8.3011475z"/>
	<path class="st1" d="M9.1955566,10.1749268c0.0437622,0.0032349,0.1641846,0.0119629,0.1953125,0.0142822   c0.031189,0.0022583,0.0698242-0.0166016,0.0985718-0.0421753c0.0249023-0.0220947,0.0518799-0.0317383,0.0609741-0.0695801   c0.0090332-0.0378418,0.0588989-0.2462158,0.0697021-0.2913208c0.0108032-0.045166,0.0019531-0.1240234-0.0188599-0.1990356   C9.5793457,9.5082397,9.4921875,9.2087402,9.4921875,9.2087402l-0.1884766,0.234375c0,0-0.1247559,0.5237427-0.1444092,0.6061401   C9.1397095,10.1315918,9.1517334,10.1717529,9.1955566,10.1749268z"/>
	<polygon class="st1" points="15.0370483,20.0768433 16.1201782,20.1991577 16.1201782,20.0768433  "/>
	<path class="st1" d="M9.9562378,7.8231201C9.932373,7.8217163,9.7597046,7.8117065,9.7369385,7.8103638   s-0.0491943,0.006958-0.055481,0.0465088C9.6654663,7.9240112,9.5066528,8.5908203,9.5066528,8.5908203   s0.4355469-0.5754395,0.486145-0.6410522C10.0424194,7.8853149,9.9801025,7.8244629,9.9562378,7.8231201z"/>
	<path class="st1" d="M12.5,18.5768433v-1.7597046v-0.1335449l-1.40625-0.1255493l0.0957642-0.5747681L12.5,16.1002808v-0.7831421   H14h1.8004761l-4.4193726-0.3876343l0.0958252-0.5747681l4.6432495,0.4072876v-0.9815063l-4.4516602-0.3837891l0.0957642-0.5747681   l4.355896,0.3755493v-0.0857544v-1.5h1.5h0.2619019c-0.008728-0.0007324-0.2142334-0.0166016-0.4517212-0.0350342   c-0.0300903-0.0023804-0.043335-0.024292-0.0354004-0.0543823c0.1644287-0.62323,0.3618774-1.371582,0.3618774-1.371582   l-0.1156616-0.3974609l-0.2111206,0.2453003c0,0-0.3856201,1.4675903-0.3930664,1.4960327   c-0.0075073,0.0284424-0.0308228,0.0491333-0.0592651,0.046936c-0.0942383-0.0073242-0.3082886-0.0239258-0.4042969-0.0314331   c-0.0297852-0.0023193-0.0429077-0.0241089-0.0350952-0.0540771c0.0078125-0.0299072,0.2467651-0.9447021,0.3234253-1.2380371   c0.1105347-0.4232178,0.460022-0.8689575,0.649292-0.992981c-0.1904297-0.3615112-0.2200317-0.6504517-0.1362305-0.9710693   c0.0205078-0.0786133,0.0275879-0.1055908,0.1342773-0.5139771c0.1068726-0.4093018,0.5730591-0.4140015,0.6467896-0.4101563   s0.7017212,0.0367432,0.7558594,0.0396118c0.0541382,0.0028076,0.0928345,0.0246582,0.0703735,0.1091309   c-0.157959,0.5952759-1.0961304,4.1304932-1.0968628,4.1331787h1.4946289H19.81604l1.2733154-5.8348389L5.3429565,4.956604   L2.1518555,18.6217041L12.5,19.7903442V18.5768433z M16.2463989,7.2816772l-0.2820435,1.0969238l0.6380615-0.701416   l0.0960693-0.3716431l0.4785156,0.0252075l-1.0767822,4.1426392l-0.4696655-0.036499l0.6060791-2.3447266L15.586731,9.8469238   c0,0-0.3798828,1.477417-0.387146,1.5055542c-0.0072021,0.0281372-0.0299683,0.048645-0.0578003,0.0465088   c-0.0922241-0.0072021-0.3016357-0.0234375-0.3955688-0.0307617c-0.0291748-0.0022583-0.0420532-0.0238647-0.0344849-0.0534668   c0.0075684-0.0296631,1.0377808-4.0592041,1.0377808-4.0592041L16.2463989,7.2816772z M14.0679932,7.1669312l1.2579346,0.0662842   l-0.0557861,0.8728027l-0.5603638-0.0324707l-0.8173828,3.2283936l-0.4574585-0.0355835l0.81073-3.2197266l-0.5535278-0.0320435   L14.0679932,7.1669312z M12.9199219,7.1064453c0.4952393,0.026062,0.7329102,0.0386353,0.7329102,0.0386353l-0.0526123,0.8641968   c0,0-0.5640259-0.0327148-0.6176758-0.0357666c-0.0535889-0.0031128-0.0986938,0.0254517-0.1158447,0.0946655   s-0.5383301,2.1729126-0.5534058,2.2337646s0.003479,0.100647,0.0657349,0.1052246   c0.0621948,0.0045166,0.6599121,0.0480957,0.7018433,0.0511475c0.0418701,0.0030518,0.0664063,0.065979,0.0372314,0.1287842   c-0.0961304,0.2067871-0.2967529,0.6316528-0.2967529,0.6316528s-0.833313-0.0647583-0.9006348-0.0699463   c-0.0672607-0.005249-0.2575684-0.1566772-0.1820068-0.463501c0.0327148-0.1326904,0.7283936-2.9571533,0.7682495-3.1190796   C12.546875,7.4041748,12.7139282,7.0955811,12.9199219,7.1064453z M12.2161255,7.0693359l-0.0499878,0.8568726L11.380127,7.8806763   l-0.2103882,0.8649902c0,0,0.1838989,0.0116577,0.2453003,0.0155029c0.0614624,0.0039063,0.0648193,0.078064,0.0592041,0.1291504   c-0.0056152,0.0509644-0.0396729,0.3481445-0.0396729,0.3481445l-0.37854-0.0250854l-0.262207,1.078125   c0,0,0.6472778,0.0472412,0.6883545,0.0502319s0.0652466,0.0653076,0.0368042,0.1275024   c-0.093811,0.204895-0.2895508,0.6258545-0.2895508,0.6258545l-1.0808105-0.0839233l0.9671021-3.9997559L12.2161255,7.0693359z    M9.55896,6.8795166c0.0483398,0.0025635,0.6141968,0.0322266,0.6812134,0.0357056   c0.0670776,0.00354,0.4018555,0.0991211,0.3074341,0.4920044c-0.0942383,0.3919678-0.1004639,0.4178467-0.1185913,0.4932861   c-0.0181274,0.0753784-0.2840576,0.5950317-0.6193848,0.907959c0.1100464,0.137146,0.2980957,0.8922119,0.2111206,1.253418   c-0.067749,0.2814941-0.0750732,0.3119507-0.0994263,0.413147c-0.024353,0.1011353-0.2282715,0.5007324-0.5142822,0.4785156   c-0.2850342-0.0221558-0.8853149-0.0687866-0.8853149-0.0687866s0.9075317-3.831665,0.9264526-3.911438   C9.467041,6.8934937,9.5105591,6.8770142,9.55896,6.8795166z M7.7138062,8.6738892   c0.0159912-0.0686035,0.0321655-0.1449585,0.0977783-0.1408081c0.0656738,0.0041504,0.1496582,0.0094604,0.1496582,0.0094604   S8.6084595,7.744812,8.3902588,7.7321777c-0.2175293-0.0126343-0.664917-0.0386353-0.664917-0.0386353L8.008667,6.8477173   c0,0,0.7330933,0.0385742,0.8198242,0.0431519c0.086792,0.0045776,0.2325439,0.1328735,0.1912842,0.3078613   C8.9785767,7.3735352,8.8701172,7.8336182,8.8527222,7.9074097c-0.017395,0.0737305-0.1235962,0.3208008-0.375,0.5693359   C8.425354,8.5247803,8.4017334,8.6196289,8.4434814,8.6223145C8.4852905,8.624939,8.6414185,8.803772,8.6062622,8.9527588   c-0.0350952,0.1488037-0.3480225,1.4762573-0.3696289,1.5679321c-0.0303955,0.1289673-0.2539673,0.3222656-0.3778687,0.3126221   c-0.1237183-0.0096436-0.8052368-0.062561-0.8052368-0.062561l0.0873413-0.7456665c0,0,0.5404663,0.0394287,0.6151123,0.0448608   c0.074707,0.0054321,0.1620483-0.0438232,0.1885986-0.1572266c0.0266113-0.1135254,0.1279907-0.5459595,0.1524048-0.6500854   C8.12146,9.1583862,8.1190796,9.0189209,7.9822998,9.0098267c-0.1364746-0.0090332-0.3414917-0.022583-0.3414917-0.022583   S7.697876,8.7424316,7.7138062,8.6738892z M6.3307495,6.7592773l0.442627,0.0233154L6.5360718,7.819458l0.559082-0.6644287   L7.1759033,6.803833l0.4259644,0.0223999l-0.9059448,3.916748l-0.4186401-0.0325317l0.5101929-2.2178345L6.2183838,9.2080078   c0,0-0.3198853,1.3978271-0.3259888,1.4244385c-0.0060425,0.0266724-0.026062,0.0460815-0.0509033,0.0441895   c-0.0822754-0.0064087-0.269043-0.020874-0.3528442-0.0274048c-0.026001-0.0020142-0.0377197-0.0223999-0.0313721-0.050415   C5.4636841,10.5707397,6.3307495,6.7592773,6.3307495,6.7592773z M9.6567993,17.6117554l-5.7477417-0.5436401l1.1495361-4.8209229   l5.6519775,0.3831787L9.6567993,17.6117554z"/>
</g>
</svg>