<svg xmlns="http://www.w3.org/2000/svg" enable-background="new 0 0 24 24" height="24" viewBox="0 0 24 24" width="24"><g fill="#fff"><path d="m7.9248047 14.7753906h-1.8583984v-6.2607422l-1.7392579 1.0673829-.8271484-1.2587891 2.734375-1.6552734h1.6904297z"/><path d="m15.5205078 12.5800781c0 1.3076172-1.1513672 2.3994141-3.1660156 2.3994141-1.9550781 0-3.0947266-1.0673828-3.0947266-2.3623047 0-.9599609.5761719-1.6074219 1.5117188-2.015625-.8642578-.5029297-1.1875-1.1748047-1.1875-1.9189453 0-1.3066406 1.1875-2.1826172 2.8183594-2.1826172 1.6074219 0 2.8066406.7675781 2.8066406 2.0869141 0 .6953125-.3964844 1.3554688-1.2958984 1.8349609 1.1035156.5283203 1.6074218 1.2353516 1.6074218 2.1582031zm-1.8945312-.0117187c0-.6591797-.3359375-.9707031-1.2480469-1.3066406l-.3955078-.1445313c-.5517578.3125-.8154297.7919922-.8154297 1.4033203 0 .671875.4794922 1.1035156 1.2470703 1.1035156.8037109 0 1.2119141-.4677734 1.2119141-1.055664zm-2.2070313-3.8613281c0 .5634766.3232422.8632813.9833984 1.1396484l.2519531.0957031c.5751953-.3720703.7197266-.7558594.7197266-1.2597656 0-.5273438-.3242188-.8994141-.9599609-.8994141-.5996094 0-.9951172.3125-.9951172.9238282z"/><path d="m19.8535156 10.0625h1.8115234v1.4628906h-1.8115234v1.8710938h-1.5712891v-1.8710938h-1.8232422v-1.4628906h1.8232422v-1.8710937h1.5712891z"/><path d="m24 20.5c0 1.3808594-1.1191406 2.5-2.5 2.5h-19c-1.3808594 0-2.5-1.1191406-2.5-2.5v-18c0-1.3808594 1.1191406-2.5 2.5-2.5h19c1.3808594 0 2.5 1.1191406 2.5 2.5zm-1-18c0-.8286133-.671875-1.5-1.5-1.5h-19c-.8286133 0-1.5.6713867-1.5 1.5v18c0 .828125.6713867 1.5 1.5 1.5h19c .828125 0 1.5-.671875 1.5-1.5z"/></g></svg>