<svg xmlns="http://www.w3.org/2000/svg" viewBox="0 0 32 32" id="header--channels--logo_5_white" width="33" height="33"><path d="M10.175 0L0 10.176V32h32V0zm5.722 27.668c-4.488-.092-8.465-1.89-9.173-6.83h6.38c.165 1.576 1.224 2.46 2.824 2.503 2.29 0 3.199-1.66 3.199-3.353 0-1.944-1.066-3.355-3.294-3.355-1.752 0-2.254.811-2.631 1.377H7.83V9.355l3.66-3.668h12.543v4.49l-10.739-.003v3.04c1.262-.72 2.734-.918 4.17-.942 4.673 0 8.218 2.916 8.218 7.245-.325 6.234-4.508 8.32-9.785 8.151z" fill="#fff"></path></svg>