<svg version="1.1" id="Layer_1" xmlns="http://www.w3.org/2000/svg" xmlns:xlink="http://www.w3.org/1999/xlink" x="0px" y="0px" viewBox="0 0 33 33" style="enable-background:new 0 0 33 33;" xml:space="preserve"><style type="text/css">.st012123123213{fill:#FFFFFF;}</style><g><polygon class="st012123123213" points="29.64,6.52 28.48,8.89 27.32,6.52 24.82,6.52 24.82,6.97 25.7,6.97 25.7,9.39 26.15,9.39 26.15,6.97    27.05,6.97 28.23,9.39 28.73,9.39 30.13,6.52   "></polygon><g>    <path class="st012123123213" d="M22.54,14.76c-0.73,0-1.34,0.48-1.55,1.13h3.09C23.88,15.23,23.26,14.76,22.54,14.76z"></path>    <path class="st012123123213" d="M14.51,4.73c-6.43,0-11.64,5.21-11.64,11.64c0,6.43,5.21,11.64,11.64,11.64c6.43,0,11.64-5.21,11.64-11.64    C26.15,9.94,20.94,4.73,14.51,4.73z M11.35,18.53h-0.67v-2.49c0-0.71-0.58-1.28-1.29-1.28c-0.71,0-1.29,0.57-1.29,1.28v2.49H7.44    v-2.49h0c0-0.71-0.58-1.29-1.29-1.29c-0.71,0-1.28,0.57-1.29,1.28v2.5H4.19v-2.49h0c0,0,0,0,0-0.01v-0.01h0    c0.01-1.07,0.88-1.94,1.96-1.94c0.68,0,1.27,0.34,1.62,0.86c0.35-0.52,0.95-0.86,1.62-0.86c1.08,0,1.95,0.87,1.96,1.94h0V18.53z        M14.51,17.99c-0.9,0-1.62-0.73-1.62-1.62c0-0.9,0.73-1.62,1.62-1.62c0.9,0,1.62,0.73,1.62,1.62    C16.13,17.27,15.4,17.99,14.51,17.99z M19.58,14.76c-0.69,0.02-1.24,0.58-1.24,1.27v2.5h-0.67v-2.49h0c0,0,0,0,0-0.01v-0.01h0    c0.01-1.06,0.86-1.91,1.91-1.94V14.76z M22.54,18c0.64,0,1.18-0.37,1.45-0.9l0.59,0.32c-0.38,0.74-1.15,1.24-2.04,1.24    c-1.26,0-2.29-1.03-2.29-2.29c0-1.26,1.03-2.29,2.29-2.29c1.26,0,2.29,1.03,2.29,2.29c0,0.05,0,0.09-0.01,0.14h-1.11v0h-2.79    C20.99,17.35,21.69,18,22.54,18z"></path></g></g></svg>