<svg enable-background="new 0 0 50 50" height="50" viewBox="0 0 50 50" width="50" xmlns="http://www.w3.org/2000/svg"><circle clip-rule="evenodd" cx="25" cy="25" fill="#231f20" fill-rule="evenodd" r="25"/><path clip-rule="evenodd" d="m25 47c-12.1308594 0-22-9.8691406-22-22s9.8691406-22 22-22c12.1298828 0 22 9.8691406 22 22s-9.8701172 22-22 22zm0-42.5078125c-11.3076172 0-20.5078125 9.1992188-20.5078125 20.5078125 0 11.3066406 9.2001953 20.5078125 20.5078125 20.5078125 11.3085938 0 20.5078125-9.2011719 20.5078125-20.5078125 0-11.3085937-9.1992187-20.5078125-20.5078125-20.5078125zm-2.234375 28.0117188c-.1464844.1474609-.3369141.2197266-.5283203.2197266s-.3818359-.0722656-.5273438-.2177734c-.2910156-.2910156-.2910156-.7646484 0-1.0566406l6.7597656-6.7661133-6.7597656-6.7661133c-.2900391-.2919922-.2900391-.765625 0-1.0556641.2919922-.2910156.7646484-.2910156 1.0556641 0l7.2851563 7.293457c.2929688.2919922.2929688.7646484 0 1.0566406z" fill="#fff" fill-rule="evenodd"/></svg>