<?xml version="1.0" encoding="utf-8"?>
<!-- Generator: Adobe Illustrator 16.0.3, SVG Export Plug-In . SVG Version: 6.00 Build 0)  -->
<!DOCTYPE svg PUBLIC "-//W3C//DTD SVG 1.0//EN" "http://www.w3.org/TR/2001/REC-SVG-20010904/DTD/svg10.dtd" [
	<!ENTITY ns_flows "http://ns.adobe.com/Flows/1.0/">
	<!ENTITY ns_extend "http://ns.adobe.com/Extensibility/1.0/">
	<!ENTITY ns_ai "http://ns.adobe.com/AdobeIllustrator/10.0/">
	<!ENTITY ns_graphs "http://ns.adobe.com/Graphs/1.0/">
]>
<svg version="1.0" id="Layer_1" xmlns:x="&ns_extend;" xmlns:i="&ns_ai;" xmlns:graph="&ns_graphs;"
	 xmlns="http://www.w3.org/2000/svg" xmlns:xlink="http://www.w3.org/1999/xlink" xmlns:a="http://ns.adobe.com/AdobeSVGViewerExtensions/3.0/"
	 x="0px" y="0px" width="30px" height="30px" viewBox="0 0 30 30" style="enable-background:new 0 0 30 30;" xml:space="preserve">
<g>
	<polygon style="fill:#FFFFFF;" points="4,6 4,8 4,13 6,13 6,8 11,8 11,6 6,6 	"/>
	<polygon style="fill:#FFFFFF;" points="6,17 4,17 4,22 4,24 6,24 11,24 11,22 6,22 	"/>
	<polygon style="fill:#FFFFFF;" points="24,22 19,22 19,24 24,24 26,24 26,22 26,17 24,17 	"/>
	<polygon style="fill:#FFFFFF;" points="24,6 19,6 19,8 24,8 24,13 26,13 26,8 26,6 	"/>
</g>
</svg>
