<svg width="20" height="20" viewBox="0 0 20 20" fill="none" xmlns="http://www.w3.org/2000/svg">
<rect width="20" height="20" fill="#2E113F"/>
<g clip-path="url(#clip0)">
<path fill-rule="evenodd" clip-rule="evenodd" d="M15.9451 10.6926C15.8552 11.0099 15.2082 11.3926 14.9192 11.3926C14.2217 11.3926 13.9433 11.0235 13.9433 10.3295C13.9433 9.79103 14.097 9.45101 14.3336 9.26219L14.3376 7.89946C11.6931 7.89946 10.4439 8.57641 10.4439 8.57641C10.4439 8.57641 10.4439 11.8221 10.4439 14.0887C11.8951 13.1537 14.3376 13.1215 14.3376 13.1215V11.8644H15.311V13.6197C15.311 13.8329 15.1367 14.0059 14.9216 14.0059C14.516 14.0059 11.5271 13.9815 10.3466 15.2491C10.2555 15.3609 9.87617 15.3619 9.76252 15.2491C8.44843 14.137 5.49575 13.9919 5.09015 13.9919C4.8751 13.9919 4.70084 13.8188 4.70084 13.6051V11.8644H5.67412V13.1215C5.67412 13.1215 8.11663 13.1537 9.56786 14.0887C9.56786 11.8221 9.56786 8.57641 9.56786 8.57641C9.56786 8.57641 8.31875 7.89946 5.67412 7.89946V9.24933C5.91027 9.43816 6.06361 9.77835 6.06361 10.317C6.06361 11.0115 5.7859 11.3808 5.09015 11.3808C4.80173 11.3808 4.20953 10.978 4.06673 10.6805C3.97776 10.4952 3.97776 10.0243 4.06673 9.79C4.17499 9.50467 4.49367 9.24788 4.70084 9.15599V7.41596C4.70084 7.20228 4.8751 7.02915 5.09015 7.02915C5.49575 7.02915 7.92926 6.85181 9.95726 7.80269C12.0815 6.86004 14.5063 7.02915 14.9216 7.02915C15.1123 7.02915 15.311 7.2262 15.311 7.43953L15.3094 9.16894C15.5171 9.26082 15.8411 9.5159 15.9451 9.80269C16.034 10.048 16.0007 10.4963 15.9451 10.6926ZM9.95726 6.81478C9.29649 6.81478 8.52617 6.47125 7.93029 6.19997C7.85701 5.98269 7.81569 5.75101 7.81569 5.50922C7.81569 4.30754 8.79626 3.33334 10.0059 3.33334C11.2155 3.33334 12.1961 4.30754 12.1961 5.50922C12.1961 5.75024 12.155 5.98132 12.0822 6.198C11.4524 6.5021 10.6607 6.81478 9.95726 6.81478Z" fill="white"/>
</g>
<defs>
<clipPath id="clip0">
<rect width="12" height="12" fill="white" transform="translate(4 3.33334)"/>
</clipPath>
</defs>
</svg>